<?xml version="1.0" encoding="utf-8"?>
<!-- Generator: Adobe Illustrator 19.2.1, SVG Export Plug-In . SVG Version: 6.00 Build 0)  -->
<svg version="1.1" id="Layer_1" xmlns="http://www.w3.org/2000/svg" xmlns:xlink="http://www.w3.org/1999/xlink" x="0px" y="0px"
	 viewBox="0 0 360 20" style="enable-background:new 0 0 360 20;" xml:space="preserve">

<rect style="fill:#ff6f2b;" class="st0" width="1" height="20"/>
<rect style="fill:#ff6f2b;" x="31" class="st0" width="1" height="20"/>
<rect style="fill:#ff6f2b;" x="6" class="st0" width="1" height="6"/>
<rect style="fill:#ff6f2b;" x="13" class="st0" width="1" height="6"/>
<rect style="fill:#ff6f2b;" x="19" class="st0" width="1" height="6"/>
<rect style="fill:#ff6f2b;" x="25" class="st0" width="1" height="6"/>
<rect style="fill:#ff6f2b;" x="37" class="st0" width="1" height="6"/>
<rect style="fill:#ff6f2b;" x="44" class="st0" width="1" height="6"/>
<rect style="fill:#ff6f2b;" x="50" class="st0" width="1" height="6"/>
<rect style="fill:#ff6f2b;" x="56" class="st0" width="1" height="6"/>
<rect style="fill:#ff6f2b;" x="62" class="st0" width="1" height="20"/>
<rect style="fill:#ff6f2b;" x="93" class="st0" width="1" height="20"/>
<rect style="fill:#ff6f2b;" x="68" class="st0" width="1" height="6"/>
<rect style="fill:#ff6f2b;" x="75" class="st0" width="1" height="6"/>
<rect style="fill:#ff6f2b;" x="81" class="st0" width="1" height="6"/>
<rect style="fill:#ff6f2b;" x="87" class="st0" width="1" height="6"/>
<rect style="fill:#ff6f2b;" x="99" class="st0" width="1" height="6"/>
<rect style="fill:#ff6f2b;" x="106" class="st0" width="1" height="6"/>
<rect style="fill:#ff6f2b;" x="112" class="st0" width="1" height="6"/>
<rect style="fill:#ff6f2b;" x="118" class="st0" width="1" height="6"/>
<rect style="fill:#ff6f2b;" x="124" class="st0" width="1" height="20"/>
<rect style="fill:#ff6f2b;" x="155" class="st0" width="1" height="20"/>
<rect style="fill:#ff6f2b;" x="130" class="st0" width="1" height="6"/>
<rect style="fill:#ff6f2b;" x="137" class="st0" width="1" height="6"/>
<rect style="fill:#ff6f2b;" x="143" class="st0" width="1" height="6"/>
<rect style="fill:#ff6f2b;" x="149" class="st0" width="1" height="6"/>
<rect style="fill:#ff6f2b;" x="161" class="st0" width="1" height="6"/>
<rect style="fill:#ff6f2b;" x="168" class="st0" width="1" height="6"/>
<rect style="fill:#ff6f2b;" x="174" class="st0" width="1" height="6"/>
<rect style="fill:#ff6f2b;" x="180" class="st0" width="1" height="6"/>
<rect style="fill:#ff6f2b;" x="186" class="st0" width="1" height="20"/>
<rect style="fill:#ff6f2b;" x="217" class="st0" width="1" height="20"/>
<rect style="fill:#ff6f2b;" x="192" class="st0" width="1" height="6"/>
<rect style="fill:#ff6f2b;" x="199" class="st0" width="1" height="6"/>
<rect style="fill:#ff6f2b;" x="205" class="st0" width="1" height="6"/>
<rect style="fill:#ff6f2b;" x="211" class="st0" width="1" height="6"/>
<rect style="fill:#ff6f2b;" x="223" class="st0" width="1" height="6"/>
<rect style="fill:#ff6f2b;" x="230" class="st0" width="1" height="6"/>
<rect style="fill:#ff6f2b;" x="236" class="st0" width="1" height="6"/>
<rect style="fill:#ff6f2b;" x="242" class="st0" width="1" height="6"/>
<rect style="fill:#ff6f2b;" x="248" class="st0" width="1" height="20"/>
<rect style="fill:#ff6f2b;" x="279" class="st0" width="1" height="20"/>
<rect style="fill:#ff6f2b;" x="254" class="st0" width="1" height="6"/>
<rect style="fill:#ff6f2b;" x="261" class="st0" width="1" height="6"/>
<rect style="fill:#ff6f2b;" x="267" class="st0" width="1" height="6"/>
<rect style="fill:#ff6f2b;" x="273" class="st0" width="1" height="6"/>
<rect style="fill:#ff6f2b;" x="285" class="st0" width="1" height="6"/>
<rect style="fill:#ff6f2b;" x="292" class="st0" width="1" height="6"/>
<rect style="fill:#ff6f2b;" x="298" class="st0" width="1" height="6"/>
<rect style="fill:#ff6f2b;" x="304" class="st0" width="1" height="6"/>
<rect style="fill:#ff6f2b;" x="310" class="st0" width="1" height="20"/>
<rect style="fill:#ff6f2b;" x="340" class="st0" width="1" height="20"/>
<rect style="fill:#ff6f2b;" x="316" class="st0" width="1" height="6"/>
<rect style="fill:#ff6f2b;" x="323" class="st0" width="1" height="6"/>
<rect style="fill:#ff6f2b;" x="329" class="st0" width="1" height="6"/>
<rect style="fill:#ff6f2b;" x="334" class="st0" width="1" height="6"/>
<rect style="fill:#ff6f2b;" x="346" class="st0" width="1" height="6"/>
<rect style="fill:#ff6f2b;" x="353" class="st0" width="1" height="6"/>
<rect style="fill:#ff6f2b;" x="359" class="st0" width="1" height="6"/>
</svg>
